<svg width="86" height="59" viewBox="0 0 86 59" fill="none" xmlns="http://www.w3.org/2000/svg">
<g clip-path="url(#clip0_820_1553)">
<path d="M77 -0.000138774H9.0425C7.92269 -0.00569083 6.81282 0.208223 5.77664 0.629312C4.74046 1.0504 3.7984 1.67036 3.0046 2.45358C2.21079 3.2368 1.58089 4.16784 1.15107 5.19319C0.721245 6.21855 0.499986 7.31802 0.5 8.42843L0.5 50.5713C0.511235 52.8106 1.4162 54.9543 3.01702 56.5338C4.61783 58.1132 6.78423 58.9999 9.0425 58.9999H77C79.2612 58.9887 81.4257 58.089 83.019 56.498C84.6123 54.907 85.5045 52.7545 85.5 50.5123V8.42843C85.5 6.19304 84.6045 4.0492 83.0104 2.46853C81.4164 0.887869 79.2543 -0.000138774 77 -0.000138774ZM79.295 50.5123C79.3063 50.8206 79.2557 51.128 79.1461 51.4168C79.0365 51.7055 78.87 51.9697 78.6565 52.194C78.4429 52.4184 78.1864 52.5983 77.9021 52.7234C77.6177 52.8486 77.3111 52.9164 77 52.9229H9.0425C8.72785 52.9219 8.4166 52.8583 8.12728 52.7356C7.83796 52.613 7.57647 52.4339 7.35839 52.209C7.1403 51.9841 6.97006 51.7179 6.85782 51.4265C6.74557 51.135 6.6936 50.8241 6.705 50.5123V8.42843C6.68889 8.11387 6.73736 7.79933 6.84749 7.5039C6.95762 7.20846 7.1271 6.93828 7.34567 6.70973C7.56423 6.48118 7.82733 6.29902 8.119 6.1743C8.41068 6.04957 8.72486 5.98488 9.0425 5.98415H77C77.314 5.99051 77.6236 6.05935 77.9103 6.18657C78.197 6.31379 78.455 6.49681 78.6691 6.72477C78.8831 6.95273 79.0488 7.22099 79.1563 7.51364C79.2638 7.80629 79.311 8.11737 79.295 8.42843V50.5123Z" fill="#EC0016"/>
<path d="M26.4923 48.8099H12.1953V10.1902H26.4923C36.5648 10.1902 42.1323 16.4442 42.1323 29.323C42.1493 40.4993 38.3668 48.7172 26.4923 48.8099ZM32.7058 30.1238C32.7058 22.3442 31.8558 16.2672 23.4408 16.2672H21.5453V42.5475H24.8688C29.8243 42.5475 32.7058 38.6198 32.7058 30.1238Z" fill="#EC0016"/>
<path d="M66.8005 28.6066C68.7522 28.0213 70.4644 26.8333 71.6876 25.2156C72.9107 23.5979 73.5809 21.6351 73.6005 19.6133C73.6005 18.8126 73.439 10.207 62.4825 10.207H46.2305V48.8099H60.0005C63.647 48.8099 75.0115 48.8099 75.0115 37.9539C75.0115 35.2399 73.8895 30.1322 66.8005 28.6066ZM55.4955 16.1576H58.4365C62.627 16.1576 64.293 17.6073 64.293 20.8102C64.293 23.3387 62.457 25.4796 59.193 25.4796H55.4955V16.1576ZM59.329 42.5475H55.4955V32.627H59.584C64.4375 32.627 65.6275 35.4337 65.6275 37.5915C65.6275 42.5475 60.8505 42.5475 59.329 42.5475Z" fill="#EC0016"/>
</g>
<defs>
<clipPath id="clip0_820_1553">
<rect width="85" height="59" fill="white" transform="translate(0.5)"/>
</clipPath>
</defs>
</svg>
